<svg id="svg" version="1.1" xmlns="http://www.w3.org/2000/svg" xmlns:xlink="http://www.w3.org/1999/xlink" width="400" height="400" viewBox="0, 0, 400,400"><g id="svgg"><path id="path0" d="M251.333 46.104 C 251.333 46.162,251.821 46.649,252.417 47.188 L 253.500 48.167 252.521 47.083 C 251.608 46.074,251.333 45.847,251.333 46.104 M243.589 70.908 C 244.188 70.982,245.088 70.981,245.589 70.905 C 246.090 70.829,245.600 70.768,244.500 70.770 C 243.400 70.772,242.990 70.834,243.589 70.908 M88.667 155.306 C 84.262 156.264,81.500 157.016,81.500 157.257 C 81.500 157.749,95.741 178.329,96.083 178.331 C 96.221 178.332,96.334 175.146,96.334 171.250 C 96.335 167.354,96.434 161.804,96.553 158.917 C 96.736 154.514,96.695 153.673,96.302 153.707 C 96.044 153.730,92.608 154.449,88.667 155.306 M71.000 159.104 C 71.000 159.162,71.487 159.649,72.083 160.188 L 73.167 161.167 72.188 160.083 C 71.275 159.074,71.000 158.847,71.000 159.104 M345.667 161.974 C 344.607 162.583,335.937 165.687,331.167 167.166 C 305.674 175.069,277.324 178.361,249.741 176.622 C 242.238 176.149,241.594 176.323,241.401 178.877 C 241.213 181.366,241.782 181.587,249.854 182.161 C 280.477 184.338,315.718 179.298,343.691 168.742 C 349.308 166.622,350.000 166.128,350.000 164.234 C 350.000 162.273,347.456 160.946,345.667 161.974 M79.333 167.771 C 79.333 167.828,79.821 168.316,80.417 168.854 L 81.500 169.833 80.521 168.750 C 79.608 167.740,79.333 167.513,79.333 167.771 M203.587 191.583 C 195.808 208.015,188.421 239.805,188.338 257.204 C 188.333 258.355,189.997 259.073,195.190 260.160 C 198.062 260.761,197.949 260.898,198.669 255.948 C 199.230 252.087,201.945 237.610,202.145 237.410 C 202.313 237.243,212.147 236.014,213.374 236.007 L 214.581 236.000 214.791 237.917 C 214.907 238.971,215.233 243.133,215.516 247.167 C 215.799 251.200,216.136 255.848,216.265 257.496 L 216.500 260.492 218.667 261.086 C 219.858 261.413,221.974 261.773,223.369 261.886 L 225.905 262.091 226.134 261.176 C 226.480 259.798,226.368 238.528,225.994 234.598 C 224.380 217.646,221.325 204.445,216.496 193.552 L 214.699 189.500 211.433 188.611 C 209.637 188.122,207.553 187.710,206.804 187.694 L 205.441 187.667 203.587 191.583 M307.737 191.250 C 300.142 207.256,292.667 238.796,292.667 254.837 L 292.667 258.034 293.837 258.523 C 295.242 259.110,300.211 260.328,301.216 260.331 C 301.864 260.333,301.968 260.058,302.319 257.417 C 302.989 252.374,305.759 237.896,306.144 237.425 C 306.258 237.286,313.147 236.385,315.884 236.151 L 318.602 235.920 318.840 238.452 C 318.970 239.846,318.986 241.221,318.876 241.510 C 318.765 241.799,318.809 241.951,318.974 241.850 C 319.139 241.748,319.369 242.977,319.485 244.582 C 320.116 253.268,320.706 260.150,320.830 260.274 C 322.027 261.472,329.836 262.325,330.113 261.288 C 330.460 259.994,330.361 238.016,329.992 234.285 C 328.261 216.785,324.788 202.405,319.686 191.621 L 318.639 189.409 315.163 188.538 C 309.491 187.116,309.742 187.024,307.737 191.250 M156.333 188.704 C 151.113 189.021,145.052 189.815,144.630 190.237 C 144.328 190.539,145.233 194.236,146.201 196.654 C 146.617 197.696,146.918 198.000,147.528 198.000 C 148.204 198.000,148.294 198.131,148.159 198.917 C 146.192 210.360,147.675 236.357,150.806 245.320 C 156.106 260.488,173.689 265.033,181.164 253.167 C 183.897 248.830,185.498 239.397,184.185 235.370 C 183.886 234.452,179.399 234.493,176.333 235.441 L 174.833 235.905 174.600 239.606 C 174.047 248.368,171.645 251.230,166.469 249.293 C 160.905 247.212,158.668 240.982,158.683 227.614 L 158.687 224.061 161.760 223.869 C 163.450 223.764,167.748 223.521,171.309 223.330 C 175.315 223.116,177.967 222.833,178.261 222.588 C 179.216 221.796,182.022 214.244,181.541 213.763 C 180.798 213.020,166.678 212.889,160.214 213.565 L 158.226 213.773 158.426 205.851 C 158.536 201.494,158.723 197.833,158.840 197.715 C 158.958 197.597,163.833 197.455,169.672 197.399 L 180.290 197.299 181.136 194.733 C 181.601 193.321,182.077 191.548,182.193 190.793 L 182.405 189.419 180.286 189.199 C 172.336 188.376,164.425 188.212,156.333 188.704 M55.251 189.200 C 49.210 191.057,44.205 197.094,41.875 205.333 C 38.488 217.306,39.019 235.893,43.017 245.333 C 51.047 264.296,73.592 261.272,79.046 240.500 C 79.995 236.885,80.190 225.897,79.359 222.833 C 78.184 218.504,77.018 216.333,75.865 216.333 C 73.767 216.333,65.426 217.643,60.750 218.706 C 55.097 219.992,55.271 219.662,57.423 225.000 C 59.168 229.331,58.838 229.268,68.636 227.136 L 69.438 226.961 69.230 231.230 C 68.604 244.106,61.652 251.499,55.851 245.459 C 50.136 239.508,49.550 212.765,54.910 202.564 C 58.335 196.046,62.886 198.258,64.330 207.142 C 64.726 209.583,64.693 209.552,67.333 209.978 C 73.678 211.004,74.672 210.540,74.661 206.562 C 74.628 194.893,64.934 186.222,55.251 189.200 M366.833 189.353 C 365.367 189.678,363.551 189.956,362.799 189.972 L 361.431 190.000 361.049 192.314 C 360.839 193.587,360.665 197.000,360.663 199.898 C 360.654 214.503,357.648 224.411,352.734 226.033 C 348.418 227.457,346.219 219.244,346.344 202.167 C 346.384 196.667,346.398 191.842,346.375 191.444 C 346.297 190.100,337.404 188.955,336.736 190.204 C 334.910 193.616,334.662 211.430,336.329 219.445 C 339.419 234.307,350.411 240.941,360.473 234.019 L 362.000 232.968 362.000 234.431 C 362.000 249.170,352.148 254.916,344.333 244.734 L 343.500 243.648 340.460 244.152 C 334.643 245.115,334.133 245.506,335.165 248.209 C 340.249 261.520,357.985 264.023,367.376 252.754 C 372.553 246.543,373.890 236.679,372.464 215.227 C 372.170 210.794,372.009 205.892,372.106 204.333 C 372.338 200.644,371.858 192.271,371.299 190.250 C 370.797 188.431,370.900 188.452,366.833 189.353 M90.167 189.494 C 89.983 189.561,88.854 189.711,87.656 189.827 C 86.458 189.943,85.260 190.173,84.993 190.338 C 84.201 190.827,84.030 201.611,84.540 219.000 C 84.790 227.525,85.063 239.565,85.147 245.755 C 85.231 251.945,85.405 257.179,85.533 257.386 C 85.766 257.764,92.282 257.567,93.885 257.133 C 94.830 256.878,94.931 256.206,95.207 248.417 C 95.332 244.887,95.571 242.000,95.737 242.000 C 95.903 242.000,95.968 241.884,95.881 241.743 C 95.793 241.602,95.538 230.630,95.313 217.360 C 95.067 202.837,94.757 192.491,94.535 191.367 L 94.167 189.500 92.333 189.436 C 91.325 189.400,90.350 189.426,90.167 189.494 M240.726 191.303 C 240.192 191.644,237.631 197.020,236.457 200.262 C 230.253 217.400,228.619 236.825,232.512 247.166 C 239.138 264.770,256.280 261.677,260.993 242.027 C 261.499 239.919,261.803 239.709,262.353 241.088 C 265.829 249.807,272.555 254.689,278.510 252.815 C 290.873 248.927,291.846 221.726,280.622 193.750 C 280.018 192.245,278.715 192.380,272.917 194.550 C 270.229 195.555,270.308 194.859,272.009 202.626 C 275.314 217.715,276.667 227.079,276.667 234.872 C 276.667 237.409,275.763 242.333,275.297 242.333 C 274.682 242.333,271.270 234.089,270.877 231.650 C 270.053 226.548,266.054 213.444,264.573 210.995 C 262.015 206.765,257.004 206.527,254.773 210.530 C 253.802 212.273,252.138 220.906,251.503 227.500 C 250.669 236.155,247.317 247.833,245.667 247.833 C 244.606 247.833,243.234 243.600,242.642 238.500 C 241.791 231.167,243.667 218.634,248.037 202.450 C 250.109 194.777,250.298 193.516,249.450 193.062 C 247.957 192.263,241.318 190.925,240.726 191.303 M107.667 191.549 C 105.300 191.905,102.842 192.416,101.302 192.874 L 99.579 193.385 99.819 197.609 C 100.229 204.848,102.727 218.394,106.684 234.833 C 112.672 259.712,112.645 259.625,115.049 261.420 C 116.343 262.387,119.371 262.284,120.981 261.219 C 127.868 256.661,138.632 220.912,140.167 197.500 C 140.275 195.850,140.434 193.880,140.519 193.123 C 140.715 191.388,140.578 191.344,134.970 191.338 L 130.774 191.333 130.358 194.250 C 128.543 206.984,126.557 216.559,123.463 227.500 C 122.426 231.167,121.390 234.842,121.162 235.667 C 120.933 236.492,120.402 238.292,119.982 239.667 L 119.218 242.167 118.791 240.333 C 118.556 239.325,118.295 237.900,118.212 237.167 C 118.129 236.433,116.855 229.758,115.380 222.333 C 113.906 214.908,112.016 205.233,111.182 200.833 C 109.683 192.936,109.261 191.290,108.757 191.379 C 108.616 191.404,108.125 191.480,107.667 191.549 M316.155 220.380 C 316.620 222.880,317.000 225.142,317.000 225.406 C 317.000 225.823,308.792 227.190,308.402 226.837 C 308.245 226.695,310.570 217.588,312.087 212.400 L 313.482 207.633 314.396 211.733 C 314.899 213.988,315.690 217.879,316.155 220.380 M211.318 216.333 C 212.040 219.908,212.727 223.518,212.844 224.356 L 213.057 225.878 208.779 226.402 C 206.425 226.690,204.456 226.886,204.402 226.837 C 204.273 226.721,206.171 218.796,207.038 215.833 C 209.800 206.390,209.296 206.332,211.318 216.333 " stroke="none" fill="#f6b43b" fill-rule="evenodd"></path><path id="path1" d="M175.468 38.362 C 156.473 40.187,146.699 62.675,158.233 78.017 C 161.494 82.355,167.309 85.932,173.792 87.588 L 177.167 88.449 188.634 85.897 C 194.940 84.493,200.164 83.280,200.242 83.203 C 200.320 83.125,199.572 81.960,198.581 80.614 C 190.346 69.430,186.435 56.049,188.952 47.670 L 189.402 46.174 190.210 47.170 C 196.772 55.260,202.065 68.004,203.344 78.788 L 203.771 82.393 205.302 82.138 C 207.141 81.832,207.700 81.835,209.710 82.162 C 211.206 82.405,211.374 82.340,215.255 80.019 C 226.891 73.062,239.191 69.812,249.166 71.059 C 253.101 71.552,253.103 71.624,249.260 73.912 C 241.718 78.404,230.338 82.600,222.333 83.842 C 221.508 83.970,220.645 84.177,220.415 84.302 C 219.716 84.680,243.408 89.789,244.721 89.543 C 249.219 88.699,258.566 81.922,260.255 78.279 C 263.323 71.664,261.576 59.503,256.449 51.778 C 251.530 44.367,240.279 38.614,232.423 39.492 C 231.732 39.569,230.224 39.723,229.071 39.834 C 221.659 40.548,211.983 46.821,209.628 52.439 L 209.234 53.378 208.194 51.439 C 204.514 44.574,199.161 39.612,194.441 38.689 C 192.425 38.295,178.641 38.058,175.468 38.362 M116.667 76.868 C 116.667 76.983,117.173 77.772,117.793 78.622 C 121.336 83.482,122.519 87.671,122.443 95.097 C 122.392 100.186,122.437 100.679,122.943 100.526 C 124.834 99.955,137.420 97.309,137.564 97.453 C 137.661 97.550,137.164 106.342,136.460 116.991 L 135.181 136.353 134.174 136.159 L 133.167 135.966 134.091 136.807 L 135.015 137.648 134.680 141.181 C 134.344 144.732,133.769 147.333,133.320 147.333 C 132.604 147.333,130.243 142.800,129.149 139.325 C 126.298 130.272,124.700 127.508,120.526 124.411 C 115.958 121.022,109.598 119.664,104.621 121.016 C 103.821 121.233,102.954 121.443,102.694 121.483 C 101.797 121.621,83.351 129.501,83.342 129.750 C 83.337 129.887,83.724 130.000,84.202 130.000 C 90.679 130.000,96.102 134.338,102.120 144.333 C 108.262 154.535,111.492 157.154,118.909 157.947 C 122.605 158.342,151.891 152.859,155.406 151.114 C 156.270 150.685,157.551 150.333,158.252 150.333 C 161.385 150.333,165.795 148.501,168.750 145.970 C 170.811 144.205,170.823 144.227,167.377 143.527 C 163.439 142.728,163.594 142.900,164.323 140.122 C 164.899 137.928,165.324 132.219,166.165 115.333 C 166.261 113.408,166.566 107.258,166.842 101.667 C 167.118 96.075,167.421 91.159,167.514 90.742 C 167.659 90.091,167.575 90.009,166.925 90.164 C 159.949 91.830,146.094 95.000,145.788 95.000 C 145.564 95.000,144.851 94.127,144.203 93.060 C 141.409 88.460,139.496 87.152,127.333 81.523 C 117.136 76.804,116.667 76.600,116.667 76.868 M287.922 81.304 C 282.471 83.844,277.255 86.409,276.331 87.002 C 273.255 88.975,268.534 95.054,269.728 95.502 C 270.331 95.729,292.471 100.645,292.527 100.564 C 292.552 100.529,292.457 98.850,292.317 96.833 C 291.794 89.316,293.274 83.733,297.244 78.250 C 298.739 76.184,299.299 76.001,287.922 81.304 M245.333 91.263 C 245.333 91.774,245.557 96.537,245.831 101.846 C 246.105 107.156,246.558 116.075,246.839 121.667 C 247.508 135.000,247.865 138.836,248.646 141.107 C 249.388 143.265,249.480 143.141,246.750 143.677 C 244.408 144.138,244.282 144.340,245.583 145.553 C 247.979 147.787,251.004 149.391,254.030 150.034 C 255.022 150.244,256.508 150.749,257.333 151.155 C 260.808 152.868,290.129 158.335,293.758 157.947 C 301.232 157.148,304.455 154.513,310.704 144.091 C 316.534 134.368,322.039 130.000,328.465 130.000 C 330.215 130.000,329.157 129.431,321.077 126.026 C 306.482 119.877,302.628 119.268,296.022 122.069 C 290.182 124.545,287.299 128.290,284.190 137.441 C 282.296 143.014,280.200 147.333,279.390 147.333 C 278.911 147.333,278.309 144.788,278.105 141.898 L 277.912 139.154 279.863 137.548 L 281.813 135.942 280.490 136.203 C 279.762 136.346,278.794 136.471,278.338 136.482 L 277.510 136.500 276.278 118.333 C 275.601 108.342,275.036 99.483,275.023 98.646 L 275.000 97.126 260.417 93.723 C 243.623 89.805,245.333 90.083,245.333 91.263 M286.833 263.707 C 277.117 265.708,268.956 267.421,268.699 267.515 C 268.294 267.662,295.969 284.667,296.614 284.667 C 296.746 284.667,298.632 279.829,300.805 273.917 C 302.978 268.004,305.034 262.454,305.373 261.583 L 305.990 260.000 305.245 260.035 C 304.835 260.054,296.550 261.706,286.833 263.707 M101.333 268.543 C 88.814 269.262,86.042 270.134,86.791 273.116 C 87.242 274.914,88.062 275.093,93.216 274.514 C 122.283 271.251,156.354 275.305,186.908 285.662 C 192.953 287.711,193.605 287.774,194.675 286.414 C 196.416 284.200,195.331 283.090,189.389 281.009 C 172.161 274.975,154.431 271.182,133.833 269.123 C 129.073 268.648,106.525 268.245,101.333 268.543 M250.167 276.733 C 247.050 280.022,244.462 282.816,244.416 282.940 C 244.321 283.197,253.603 283.100,256.192 282.818 L 257.884 282.633 257.025 276.843 C 256.553 273.659,256.092 270.986,256.000 270.903 C 255.908 270.821,253.283 273.444,250.167 276.733 " stroke="none" fill="#cf2427" fill-rule="evenodd"></path><path id="path2" d="M125.667 124.047 C 124.292 124.391,122.820 124.752,122.396 124.848 C 121.654 125.017,121.681 125.084,123.136 126.702 C 124.801 128.554,126.273 131.001,127.160 133.393 C 127.520 134.363,127.946 134.959,128.286 134.969 C 128.961 134.989,130.500 135.252,130.500 135.348 C 130.500 135.387,130.800 135.464,131.167 135.519 C 131.533 135.574,132.208 135.702,132.667 135.804 C 133.125 135.906,133.892 136.074,134.371 136.177 L 135.242 136.366 135.470 131.766 C 135.596 129.237,135.777 126.713,135.873 126.158 C 136.024 125.276,135.944 125.141,135.237 125.082 C 134.470 125.019,129.740 123.942,128.667 123.586 C 128.392 123.495,127.042 123.702,125.667 124.047 M165.212 133.547 C 165.095 134.397,165.000 135.641,165.000 136.310 C 165.000 137.338,164.474 139.875,163.809 142.056 C 163.704 142.401,163.867 142.685,164.236 142.801 C 164.884 143.005,170.746 144.315,171.833 144.498 C 172.200 144.560,172.500 144.643,172.500 144.681 C 172.500 144.752,173.087 144.875,174.667 145.139 C 175.125 145.215,175.500 145.309,175.500 145.348 C 175.500 145.418,176.087 145.542,177.667 145.806 C 178.125 145.882,178.500 145.976,178.500 146.015 C 178.500 146.085,179.087 146.209,180.667 146.472 C 181.125 146.549,181.500 146.643,181.500 146.681 C 181.500 146.752,182.087 146.875,183.667 147.139 C 184.125 147.215,184.500 147.309,184.500 147.348 C 184.500 147.418,185.087 147.542,186.667 147.806 C 187.125 147.882,187.500 147.976,187.500 148.015 C 187.500 148.085,188.087 148.209,189.667 148.472 C 190.125 148.549,190.500 148.643,190.500 148.681 C 190.500 148.752,191.087 148.875,192.667 149.139 C 193.125 149.215,193.500 149.309,193.500 149.348 C 193.500 149.418,194.087 149.542,195.667 149.806 C 196.125 149.882,196.500 149.976,196.500 150.015 C 196.500 150.085,197.087 150.209,198.667 150.472 C 199.125 150.549,199.500 150.643,199.500 150.681 C 199.500 150.752,200.087 150.875,201.667 151.139 C 202.125 151.215,202.500 151.309,202.500 151.348 C 202.500 151.418,203.087 151.542,204.667 151.806 C 205.125 151.882,205.500 151.974,205.500 152.010 C 205.500 152.046,205.906 152.124,206.402 152.184 L 207.303 152.291 207.402 146.645 C 207.487 141.769,207.431 140.999,206.993 141.000 C 206.714 141.000,197.378 138.975,186.247 136.500 C 162.584 131.239,165.473 131.644,165.212 133.547 M58.091 164.702 C 53.621 171.048,50.521 175.744,50.757 175.812 C 51.475 176.021,88.246 178.085,88.678 177.941 C 89.019 177.827,76.033 163.986,67.879 155.772 L 65.833 153.711 58.091 164.702 M102.662 166.417 C 102.659 166.646,102.365 169.376,102.007 172.484 C 101.649 175.591,101.408 178.186,101.472 178.250 C 101.609 178.387,115.285 170.115,115.954 169.492 C 116.507 168.976,116.937 169.116,109.383 167.351 C 103.005 165.861,102.669 165.814,102.662 166.417 M170.662 225.336 C 170.407 225.494,170.079 225.549,169.933 225.458 C 169.786 225.368,169.482 225.408,169.256 225.548 C 169.030 225.688,168.542 225.846,168.173 225.901 C 166.984 226.076,166.167 226.246,166.167 226.319 C 166.167 226.357,165.792 226.451,165.333 226.528 C 163.754 226.791,163.167 226.915,163.167 226.985 C 163.167 227.085,161.613 227.346,160.923 227.362 C 160.606 227.370,160.264 227.510,160.163 227.673 C 160.061 227.837,159.774 227.892,159.523 227.796 C 158.715 227.486,158.643 228.213,159.017 232.899 C 159.906 244.048,161.605 247.593,166.903 249.357 C 171.548 250.902,173.751 248.292,174.363 240.518 C 174.750 235.608,174.698 235.753,176.149 235.481 C 177.558 235.217,177.550 235.262,176.512 233.490 C 176.060 232.719,175.785 231.993,175.901 231.877 C 176.016 231.761,175.927 231.667,175.703 231.667 C 175.478 231.667,175.387 231.517,175.500 231.333 C 175.613 231.150,175.522 231.000,175.297 231.000 C 175.073 231.000,174.989 230.900,175.111 230.777 C 175.234 230.655,174.892 229.772,174.352 228.815 C 173.812 227.858,173.462 226.983,173.574 226.871 C 173.686 226.758,173.594 226.667,173.369 226.667 C 173.145 226.667,173.053 226.517,173.167 226.333 C 173.280 226.150,173.214 226.000,173.020 226.000 C 172.826 226.000,172.704 225.822,172.750 225.605 C 172.850 225.130,171.315 224.932,170.662 225.336 M146.683 230.650 C 146.416 230.818,146.079 230.882,145.933 230.792 C 145.786 230.701,145.482 230.742,145.256 230.881 C 145.030 231.021,144.542 231.180,144.173 231.234 C 142.984 231.409,142.167 231.580,142.167 231.652 C 142.167 231.691,141.792 231.785,141.333 231.861 C 139.754 232.125,139.167 232.248,139.167 232.319 C 139.167 232.357,138.792 232.451,138.333 232.528 C 136.754 232.791,136.167 232.915,136.167 232.985 C 136.167 233.082,134.626 233.345,133.949 233.364 C 133.593 233.374,133.324 233.777,133.187 234.510 C 132.512 238.106,128.339 249.290,125.601 254.843 C 122.294 261.548,119.281 263.605,115.437 261.781 C 113.113 260.678,112.314 258.681,109.539 247.026 C 107.722 239.397,107.456 238.806,106.192 239.588 C 106.001 239.705,105.542 239.846,105.173 239.901 C 103.984 240.076,103.167 240.246,103.167 240.319 C 103.167 240.357,102.792 240.451,102.333 240.528 C 100.754 240.791,100.167 240.915,100.167 240.985 C 100.167 241.024,99.792 241.118,99.333 241.194 C 97.885 241.436,97.172 241.579,97.000 241.663 C 96.908 241.707,96.613 241.764,96.343 241.788 C 95.668 241.850,95.460 243.435,95.198 250.500 C 95.035 254.872,94.852 256.623,94.522 256.954 C 94.106 257.370,85.428 258.006,85.282 257.631 C 85.254 257.559,85.142 254.575,85.032 251.000 C 84.841 244.745,84.808 244.504,84.167 244.597 C 82.771 244.800,82.167 244.917,82.167 244.985 C 82.167 245.024,81.792 245.118,81.333 245.194 C 79.885 245.436,79.172 245.579,79.000 245.663 C 78.908 245.707,78.683 245.767,78.500 245.795 C 77.642 245.928,76.667 246.410,76.667 246.700 C 76.667 247.333,73.679 251.527,72.197 252.976 L 70.686 254.453 71.339 255.509 C 71.698 256.089,71.893 256.662,71.773 256.782 C 71.654 256.902,71.739 257.000,71.964 257.000 C 72.189 257.000,72.280 257.150,72.167 257.333 C 72.053 257.517,72.145 257.667,72.369 257.667 C 72.594 257.667,72.678 257.767,72.555 257.889 C 72.433 258.012,72.775 258.895,73.315 259.852 C 73.855 260.809,74.205 261.684,74.093 261.796 C 73.981 261.908,74.073 262.000,74.297 262.000 C 74.522 262.000,74.613 262.150,74.500 262.333 C 74.387 262.517,74.478 262.667,74.703 262.667 C 74.927 262.667,75.011 262.767,74.889 262.889 C 74.766 263.012,75.108 263.895,75.648 264.852 C 76.188 265.809,76.538 266.684,76.426 266.796 C 76.314 266.908,76.406 267.000,76.631 267.000 C 76.855 267.000,76.947 267.150,76.833 267.333 C 76.720 267.517,76.811 267.667,77.036 267.667 C 77.261 267.667,77.351 267.760,77.237 267.875 C 77.122 267.989,77.352 268.701,77.748 269.458 C 78.144 270.214,78.438 270.946,78.401 271.083 C 78.364 271.221,78.492 271.333,78.686 271.333 C 78.880 271.333,78.947 271.483,78.833 271.667 C 78.720 271.850,78.811 272.000,79.036 272.000 C 79.261 272.000,79.344 272.100,79.222 272.223 C 79.100 272.345,79.441 273.228,79.981 274.185 C 80.522 275.142,80.872 276.017,80.760 276.129 C 80.647 276.242,80.739 276.333,80.964 276.333 C 81.189 276.333,81.280 276.483,81.167 276.667 C 81.053 276.850,81.145 277.000,81.369 277.000 C 81.594 277.000,81.678 277.100,81.555 277.223 C 81.433 277.345,81.775 278.228,82.315 279.185 C 82.855 280.142,83.205 281.017,83.093 281.129 C 82.981 281.242,83.073 281.333,83.297 281.333 C 83.522 281.333,83.613 281.483,83.500 281.667 C 83.387 281.850,83.478 282.000,83.703 282.000 C 83.927 282.000,84.011 282.100,83.889 282.223 C 83.766 282.345,84.108 283.228,84.648 284.185 C 85.188 285.142,85.538 286.017,85.426 286.129 C 85.314 286.242,85.406 286.333,85.631 286.333 C 85.855 286.333,85.947 286.483,85.833 286.667 C 85.720 286.850,85.811 287.000,86.036 287.000 C 86.261 287.000,86.344 287.100,86.222 287.223 C 86.100 287.345,86.441 288.228,86.981 289.185 C 87.522 290.142,87.872 291.017,87.760 291.129 C 87.647 291.242,87.739 291.333,87.964 291.333 C 88.189 291.333,88.280 291.483,88.167 291.667 C 88.053 291.850,88.095 292.000,88.258 292.000 C 88.422 292.000,88.581 292.225,88.611 292.500 C 88.642 292.775,88.692 293.198,88.722 293.441 C 88.761 293.746,98.936 296.131,121.791 301.191 C 152.114 307.904,154.929 308.584,156.319 309.531 C 157.810 310.545,159.790 310.942,160.184 310.305 C 160.291 310.131,160.526 310.079,160.704 310.190 C 160.883 310.300,161.210 310.248,161.431 310.074 C 161.652 309.900,162.058 309.749,162.333 309.739 C 162.608 309.729,163.133 309.638,163.500 309.538 C 163.867 309.438,173.767 307.227,185.500 304.624 C 205.596 300.166,207.885 299.557,206.899 298.931 C 206.680 298.791,206.627 298.675,206.782 298.672 C 206.937 298.669,206.608 297.858,206.050 296.871 C 205.493 295.883,205.128 294.983,205.240 294.871 C 205.353 294.758,205.261 294.667,205.036 294.667 C 204.811 294.667,204.720 294.517,204.833 294.333 C 204.947 294.150,204.855 294.000,204.631 294.000 C 204.406 294.000,204.322 293.900,204.445 293.777 C 204.567 293.655,204.225 292.772,203.685 291.815 C 203.145 290.858,202.795 289.983,202.907 289.871 C 203.019 289.758,202.911 289.667,202.667 289.667 C 202.422 289.667,202.322 289.567,202.444 289.444 C 202.567 289.322,202.152 288.286,201.524 287.143 C 200.895 285.999,200.470 284.974,200.579 284.865 C 200.688 284.756,200.578 284.667,200.333 284.667 C 200.089 284.667,199.989 284.567,200.111 284.444 C 200.234 284.322,199.892 283.439,199.352 282.481 C 198.812 281.524,198.462 280.650,198.574 280.537 C 198.686 280.425,198.594 280.333,198.369 280.333 C 198.145 280.333,198.053 280.183,198.167 280.000 C 198.280 279.817,198.189 279.667,197.964 279.667 C 197.739 279.667,197.656 279.567,197.778 279.444 C 197.900 279.322,197.559 278.439,197.019 277.481 C 196.478 276.524,196.128 275.650,196.240 275.537 C 196.353 275.425,196.261 275.333,196.036 275.333 C 195.811 275.333,195.720 275.183,195.833 275.000 C 195.947 274.817,195.855 274.667,195.631 274.667 C 195.406 274.667,195.322 274.567,195.445 274.444 C 195.567 274.322,195.225 273.439,194.685 272.481 C 194.145 271.524,193.795 270.650,193.907 270.537 C 194.019 270.425,193.927 270.333,193.703 270.333 C 193.478 270.333,193.387 270.183,193.500 270.000 C 193.613 269.817,193.522 269.667,193.297 269.667 C 193.073 269.667,192.989 269.567,193.111 269.444 C 193.234 269.322,192.892 268.439,192.352 267.481 C 191.812 266.524,191.462 265.650,191.574 265.537 C 191.686 265.425,191.578 265.333,191.333 265.333 C 191.089 265.333,190.982 265.240,191.096 265.126 C 191.210 265.012,190.905 264.150,190.418 263.209 C 189.932 262.269,189.563 261.387,189.600 261.250 C 189.637 261.112,189.508 261.000,189.314 261.000 C 189.120 261.000,189.053 260.850,189.167 260.667 C 189.280 260.483,189.189 260.333,188.964 260.333 C 188.739 260.333,188.656 260.233,188.778 260.111 C 188.900 259.988,188.559 259.105,188.019 258.148 C 187.478 257.191,187.128 256.316,187.240 256.204 C 187.353 256.092,187.261 256.000,187.036 256.000 C 186.811 256.000,186.720 255.850,186.833 255.667 C 186.947 255.483,186.855 255.333,186.631 255.333 C 186.406 255.333,186.322 255.233,186.445 255.111 C 186.567 254.988,186.225 254.105,185.685 253.148 C 185.145 252.191,184.795 251.316,184.907 251.204 C 185.019 251.092,184.927 251.000,184.703 251.000 C 184.478 251.000,184.387 250.850,184.500 250.667 C 184.613 250.483,184.538 250.333,184.333 250.333 C 184.128 250.333,184.031 250.219,184.118 250.079 C 184.204 249.939,184.068 249.452,183.816 248.996 C 183.535 248.488,183.352 248.364,183.345 248.676 C 183.316 249.947,180.905 254.139,179.255 255.787 C 173.350 261.688,162.695 261.022,155.997 254.333 C 151.710 250.053,149.682 244.458,148.096 232.527 C 147.827 230.505,147.532 230.113,146.683 230.650 M119.697 236.641 C 119.439 236.804,119.026 236.861,118.780 236.767 C 118.227 236.555,118.228 237.196,118.784 239.833 L 119.206 241.833 119.936 239.448 C 120.911 236.265,120.879 235.892,119.697 236.641 M133.833 269.123 C 154.431 271.182,172.161 274.975,189.389 281.009 C 195.331 283.090,196.416 284.200,194.675 286.414 C 193.605 287.774,192.953 287.711,186.908 285.662 C 156.354 275.305,122.283 271.251,93.216 274.514 C 88.062 275.093,87.242 274.914,86.791 273.116 C 86.042 270.134,88.814 269.262,101.333 268.543 C 106.525 268.245,129.073 268.648,133.833 269.123 M261.465 269.917 C 261.561 270.237,262.869 275.450,264.371 281.500 C 265.872 287.550,267.167 292.575,267.248 292.667 C 267.471 292.918,280.971 285.889,280.799 285.612 C 280.561 285.226,261.707 269.333,261.487 269.333 C 261.378 269.333,261.368 269.596,261.465 269.917 M245.587 283.236 C 246.002 283.315,246.602 283.312,246.921 283.229 C 247.239 283.146,246.900 283.080,246.167 283.084 C 245.433 283.088,245.173 283.156,245.587 283.236 " stroke="none" fill="#9c9cd4" fill-rule="evenodd"></path><path id="path3" d="M200.000 107.496 C 196.608 108.278,187.686 110.296,180.174 111.980 C 172.661 113.664,166.443 115.112,166.357 115.199 C 166.189 115.366,165.260 131.716,165.411 131.837 C 165.634 132.016,206.576 141.001,207.167 141.001 C 207.533 141.001,216.721 139.026,227.583 136.611 L 247.333 132.222 247.312 131.028 C 247.244 127.258,246.437 114.993,246.244 114.800 C 246.118 114.674,240.424 113.316,233.591 111.782 C 226.758 110.248,218.176 108.320,214.522 107.496 C 206.645 105.723,207.687 105.723,200.000 107.496 M276.667 123.278 C 276.667 124.387,276.781 125.365,276.921 125.451 C 277.156 125.596,285.650 123.794,285.898 123.547 C 285.958 123.486,284.093 123.018,281.754 122.506 C 279.414 121.993,277.313 121.504,277.083 121.418 C 276.779 121.304,276.667 121.804,276.667 123.278 M134.833 122.033 C 134.283 122.169,132.635 122.540,131.170 122.858 C 128.104 123.523,128.209 123.639,132.772 124.632 C 136.065 125.348,136.115 125.324,135.938 123.098 C 135.836 121.822,135.806 121.793,134.833 122.033 M206.949 299.596 C 206.885 299.756,198.179 301.799,187.602 304.137 C 177.024 306.475,166.094 308.956,163.311 309.651 L 158.252 310.914 160.709 312.727 C 162.061 313.724,171.942 320.970,182.667 328.829 C 193.392 336.688,203.327 343.986,204.745 345.048 L 207.324 346.978 231.245 329.447 C 244.402 319.805,255.444 311.673,255.784 311.376 C 256.523 310.729,259.370 311.445,229.667 304.806 C 217.658 302.122,207.660 299.786,207.449 299.616 C 207.238 299.445,207.013 299.436,206.949 299.596 " stroke="none" fill="#4c547c" fill-rule="evenodd"></path><path id="path4" d="M206.170 82.029 C 205.621 82.189,204.796 82.383,204.336 82.462 C 203.281 82.643,168.685 90.308,167.976 90.518 C 167.490 90.663,165.919 114.408,166.370 114.796 C 166.442 114.858,172.050 113.675,178.833 112.168 C 185.617 110.661,194.811 108.634,199.266 107.662 L 207.366 105.896 213.599 107.268 C 217.028 108.022,225.729 109.937,232.935 111.523 C 240.142 113.109,246.126 114.318,246.235 114.210 C 246.343 114.101,246.168 108.836,245.846 102.509 C 245.523 96.183,245.346 90.780,245.453 90.503 C 245.577 90.179,245.442 89.990,245.073 89.973 C 244.014 89.922,242.782 89.663,230.785 86.974 C 218.169 84.146,208.944 82.096,207.833 81.874 C 207.467 81.800,206.718 81.870,206.170 82.029 M274.417 96.896 C 274.832 97.005,275.007 97.401,275.026 98.274 C 275.040 98.948,275.377 104.375,275.776 110.333 L 276.500 121.167 278.833 121.720 C 280.117 122.025,282.337 122.529,283.768 122.841 C 286.981 123.542,287.013 123.514,281.619 124.714 C 276.243 125.911,276.836 125.038,277.229 131.165 C 277.626 137.363,277.146 136.811,281.402 135.958 L 284.918 135.253 285.325 133.877 C 288.221 124.061,299.876 118.061,309.583 121.388 L 312.000 122.216 312.000 113.621 L 312.000 105.026 310.750 104.705 C 310.063 104.529,306.050 103.629,301.833 102.705 C 297.617 101.781,289.697 100.044,284.234 98.846 C 278.771 97.647,274.196 96.684,274.068 96.705 C 273.939 96.727,274.096 96.813,274.417 96.896 M129.833 98.982 C 125.983 99.849,118.558 101.493,113.333 102.635 C 108.108 103.776,103.571 104.786,103.250 104.878 C 102.715 105.031,102.667 105.721,102.667 113.228 L 102.667 121.411 103.417 121.205 C 109.100 119.641,114.723 120.498,119.641 123.676 L 121.685 124.998 124.426 124.362 C 132.679 122.448,135.760 121.685,135.932 121.512 C 136.086 121.358,137.585 100.914,137.650 98.083 C 137.671 97.157,138.206 97.095,129.833 98.982 M227.167 136.786 L 207.500 141.183 207.409 146.758 C 207.358 149.824,207.438 152.333,207.585 152.333 C 208.113 152.333,247.035 143.632,248.714 143.139 C 249.216 142.991,249.211 142.847,248.656 141.385 C 248.154 140.065,247.333 134.766,247.333 132.846 C 247.333 132.204,249.915 131.700,227.167 136.786 M242.869 227.289 C 242.189 235.165,242.341 239.014,243.509 243.500 C 244.768 248.332,245.658 248.847,247.253 245.667 C 248.706 242.769,252.166 227.722,251.527 227.082 C 251.453 227.009,249.767 226.587,247.780 226.145 C 245.793 225.703,243.918 225.282,243.613 225.210 C 243.153 225.100,243.028 225.452,242.869 227.289 M158.751 231.500 C 158.754 232.233,158.823 232.494,158.902 232.079 C 158.982 231.665,158.979 231.065,158.896 230.746 C 158.812 230.427,158.747 230.767,158.751 231.500 M271.217 233.083 C 272.251 236.600,274.820 242.333,275.363 242.333 C 275.809 242.333,276.715 236.764,276.609 234.678 L 276.500 232.522 274.000 231.941 C 270.473 231.122,270.622 231.061,271.217 233.083 M288.000 236.514 C 288.000 237.163,287.762 238.851,287.472 240.264 C 284.022 257.051,268.915 257.546,262.353 241.088 C 261.803 239.709,261.499 239.919,260.993 242.027 C 259.274 249.196,255.094 255.430,250.487 257.698 C 243.808 260.986,234.767 255.734,232.556 247.280 C 232.448 246.867,232.286 246.603,232.196 246.693 C 231.714 247.175,226.333 259.184,226.329 259.787 C 226.321 261.034,225.948 261.961,225.412 262.065 C 224.560 262.232,207.277 299.607,207.960 299.809 C 208.257 299.897,219.225 302.388,232.332 305.344 C 256.506 310.797,256.750 310.858,256.131 311.268 C 254.784 312.161,207.700 346.809,207.759 346.864 C 207.800 346.902,231.246 341.728,259.861 335.367 L 311.888 323.801 314.194 322.124 C 325.131 314.168,363.266 286.165,363.625 285.826 C 363.953 285.516,363.247 285.578,361.125 286.046 C 359.498 286.405,350.892 288.321,342.000 290.303 C 333.108 292.285,325.792 293.874,325.742 293.834 C 325.692 293.794,329.487 285.528,334.175 275.464 L 342.699 257.167 341.941 256.667 C 338.521 254.412,334.335 248.326,334.742 246.199 C 334.878 245.486,332.733 244.667,330.730 244.667 C 330.435 244.667,330.332 246.688,330.329 252.583 C 330.323 262.725,330.495 262.135,327.623 261.852 C 325.613 261.654,321.189 260.633,320.843 260.288 C 320.687 260.131,320.121 253.839,319.666 247.191 C 319.479 244.454,319.277 242.166,319.217 242.106 C 318.850 241.738,305.818 239.089,305.657 239.349 C 305.392 239.778,302.801 253.805,302.320 257.417 C 301.968 260.058,301.864 260.333,301.216 260.331 C 300.211 260.328,295.242 259.110,293.837 258.523 L 292.667 258.034 292.670 254.767 C 292.673 251.359,293.313 244.956,294.162 239.845 C 294.739 236.367,294.865 236.571,291.709 235.875 C 288.143 235.089,288.000 235.114,288.000 236.514 M174.424 240.000 C 174.424 240.825,174.489 241.162,174.569 240.750 C 174.648 240.338,174.648 239.662,174.569 239.250 C 174.489 238.838,174.424 239.175,174.424 240.000 M95.411 243.000 C 95.411 243.642,95.479 243.904,95.563 243.583 C 95.647 243.262,95.647 242.737,95.563 242.417 C 95.479 242.096,95.411 242.358,95.411 243.000 M84.923 247.249 C 85.081 252.427,85.215 252.936,85.275 248.583 C 85.307 246.246,85.221 244.333,85.083 244.333 C 84.946 244.332,84.873 245.645,84.923 247.249 M95.084 250.833 C 95.088 251.567,95.156 251.827,95.236 251.413 C 95.315 250.998,95.312 250.398,95.229 250.079 C 95.146 249.761,95.080 250.100,95.084 250.833 M155.833 254.333 C 156.549 255.067,157.210 255.667,157.302 255.667 C 157.394 255.667,156.883 255.067,156.167 254.333 C 155.451 253.600,154.790 253.000,154.698 253.000 C 154.606 253.000,155.117 253.600,155.833 254.333 M301.463 272.288 C 298.956 279.096,296.763 284.667,296.588 284.667 C 296.193 284.667,268.342 267.899,268.337 267.657 C 268.333 267.488,305.734 259.717,305.927 259.847 C 305.979 259.881,303.970 265.480,301.463 272.288 M271.168 277.352 C 276.384 281.763,280.718 285.479,280.799 285.612 C 280.971 285.889,267.471 292.918,267.248 292.667 C 267.167 292.575,265.872 287.550,264.371 281.500 C 262.869 275.450,261.561 270.237,261.465 269.917 C 261.162 268.913,261.460 269.142,271.168 277.352 M257.067 276.583 C 257.552 279.837,257.849 282.594,257.725 282.709 C 257.601 282.825,254.460 282.998,250.745 283.095 L 243.990 283.271 245.650 281.455 C 248.951 277.843,255.837 270.673,256.008 270.670 C 256.104 270.668,256.581 273.329,257.067 276.583 M50.869 285.652 C 51.033 285.806,62.792 294.455,77.000 304.871 L 102.833 323.809 154.833 335.371 C 183.433 341.730,206.870 346.900,206.914 346.858 C 206.958 346.817,196.172 338.848,182.946 329.150 C 169.719 319.451,158.733 311.357,158.532 311.163 C 156.011 308.725,158.884 309.456,103.457 297.147 C 75.064 290.842,51.549 285.613,51.202 285.527 C 50.851 285.440,50.703 285.496,50.869 285.652 " stroke="none" fill="#d5d3f0" fill-rule="evenodd"></path></g></svg>