<?xml version="1.0" standalone="no"?>
<!DOCTYPE svg PUBLIC "-//W3C//DTD SVG 20010904//EN"
 "http://www.w3.org/TR/2001/REC-SVG-20010904/DTD/svg10.dtd">
<svg version="1.0" xmlns="http://www.w3.org/2000/svg"
 width="450.000000pt" height="450.000000pt" viewBox="0 0 450.000000 450.000000"
 preserveAspectRatio="xMidYMid meet">

<g transform="translate(0.000000,450.000000) scale(0.100000,-0.100000)"
fill="#000000" stroke="none">
<path d="M0 2250 l0 -2250 1370 0 c1344 0 1369 0 1380 19 5 11 10 48 10 82 0
58 2 64 36 96 46 43 113 77 193 98 34 9 88 27 119 41 58 26 72 26 149 3 37
-11 47 -11 77 4 47 22 57 59 26 92 -33 35 -69 39 -129 15 l-52 -20 -42 20
c-121 58 -203 107 -213 129 -24 48 3 67 151 106 88 22 104 24 161 14 89 -15
166 8 338 105 l68 39 47 -17 c81 -29 133 -19 159 30 9 18 7 36 -13 93 l-25 72
18 42 c11 23 41 71 67 107 33 44 48 74 48 95 0 16 1 49 4 73 4 38 7 42 32 42
30 0 41 18 41 68 0 18 6 22 30 22 18 0 33 6 36 15 4 8 12 15 20 15 8 0 14 8
14 19 0 17 9 18 133 17 101 -1 145 3 190 17 l57 18 0 1464 0 1465 -2250 0
-2250 0 0 -2250z m3334 -869 c17 -19 16 -20 -31 -26 -70 -9 -70 -9 -98 -65
-14 -27 -28 -50 -30 -50 -3 0 -16 24 -29 54 -21 48 -27 54 -62 60 -69 12 -76
16 -63 32 9 11 43 14 154 14 127 0 144 -2 159 -19z m-1336 -83 c-204 -101
-518 -254 -678 -331 -122 -58 -179 -68 -245 -42 -54 20 -89 63 -105 127 -15
57 -7 83 61 221 l49 97 325 0 c206 0 326 4 330 10 4 6 89 10 226 9 l221 -1
-184 -90z"/>
<path d="M1063 1208 c-18 -39 -31 -73 -30 -75 2 -1 102 -8 223 -13 l219 -10
127 57 c70 32 127 64 128 71 0 6 -6 12 -12 12 -7 0 -148 7 -313 15 -165 8
-302 15 -305 15 -3 0 -20 -32 -37 -72z"/>
</g>
</svg>
